<svg width="17" height="17" viewBox="0 0 17 17" fill="none" xmlns="http://www.w3.org/2000/svg">
<path fill-rule="evenodd" clip-rule="evenodd" d="M8.0141 16.1458C12.4385 16.1458 16.0252 12.5591 16.0252 8.13465C16.0252 3.71023 12.4385 0.123535 8.0141 0.123535C3.58969 0.123535 0.00299072 3.71023 0.00299072 8.13465C0.00299072 12.5591 3.58969 16.1458 8.0141 16.1458ZM9.01549 4.12909C9.01549 3.57604 8.56715 3.1277 8.0141 3.1277C7.46105 3.1277 7.01271 3.57604 7.01271 4.12909V8.13465C7.01271 8.40023 7.11822 8.65494 7.30601 8.84274L10.1384 11.6751C10.5294 12.0662 11.1635 12.0662 11.5545 11.6751C11.9456 11.284 11.9456 10.65 11.5545 10.2589L9.01549 7.71986V4.12909Z" fill="white" fill-opacity="0.8"/>
</svg>
