<svg width="17" height="13" viewBox="0 0 17 13" fill="none" xmlns="http://www.w3.org/2000/svg">
<path d="M0.00610172 2.07192L8.01421 6.07547L16.0223 2.07192C15.9927 1.56166 15.7691 1.08203 15.3973 0.731287C15.0255 0.380539 14.5337 0.185209 14.0225 0.185303H2.00588C1.49475 0.185209 1.00293 0.380539 0.631146 0.731287C0.259361 1.08203 0.0357469 1.56166 0.00610172 2.07192Z" fill="white" fill-opacity="0.8"/>
<path d="M16.0253 4.30902L8.01421 8.31458L0.00309753 4.30902V10.1992C0.00309753 10.7304 0.214104 11.2398 0.589697 11.6154C0.965291 11.991 1.47471 12.202 2.00588 12.202H14.0225C14.5537 12.202 15.0631 11.991 15.4387 11.6154C15.8143 11.2398 16.0253 10.7304 16.0253 10.1992V4.30902Z" fill="white" fill-opacity="0.8"/>
</svg>
