<svg width="17" height="17" viewBox="0 0 17 17" fill="none" xmlns="http://www.w3.org/2000/svg">
<path d="M0.00299072 1.06999C0.00299072 0.516941 0.451328 0.0686035 1.00438 0.0686035H3.16024C3.64976 0.0686035 4.06753 0.422507 4.14801 0.905365L4.88835 5.3474C4.96062 5.78103 4.74162 6.21109 4.34842 6.4077L2.79813 7.18284C3.91598 9.96064 6.13317 12.1778 8.91098 13.2957L9.68612 11.7454C9.88272 11.3522 10.3128 11.1332 10.7464 11.2055L15.1885 11.9458C15.6713 12.0263 16.0252 12.4441 16.0252 12.9336V15.0894C16.0252 15.6425 15.5769 16.0908 15.0238 16.0908H13.021C5.83137 16.0908 0.00299072 10.2624 0.00299072 3.07277V1.06999Z" fill="white" fill-opacity="0.8"/>
</svg>
